<?xml version="1.0" encoding="UTF-8" standalone="no"?>
<!-- Uploaded to: SVG Repo, www.svgrepo.com, Generator: SVG Repo Mixer Tools -->

<svg
        width="21.637672"
        height="25"
        viewBox="0 0 13.84811 16"
        version="1.1"
        id="svg4"
        sodipodi:docname="d20_small.svg"
        inkscape:version="1.2.2 (b0a8486541, 2022-12-01)"
        xmlns:inkscape="http://www.inkscape.org/namespaces/inkscape"
        xmlns:sodipodi="http://sodipodi.sourceforge.net/DTD/sodipodi-0.dtd"
        xmlns="http://www.w3.org/2000/svg"
>
  <defs
     id="defs8" />
  <sodipodi:namedview
     id="namedview6"
     pagecolor="#ffffff"
     bordercolor="#000000"
     borderopacity="0.25"
     inkscape:showpageshadow="2"
     inkscape:pageopacity="0.0"
     inkscape:pagecheckerboard="0"
     inkscape:deskcolor="#d1d1d1"
     showgrid="false"
     inkscape:zoom="0.98125"
     inkscape:cx="73.88535"
     inkscape:cy="369.42675"
     inkscape:window-width="1879"
     inkscape:window-height="1011"
     inkscape:window-x="0"
     inkscape:window-y="0"
     inkscape:window-maximized="1"
     inkscape:current-layer="svg4" />
  <path
     fill="#000000"
     d="M 6.6525244,0 0.67882921,3.811625 6.6525244,3.6826472 Z M 7.1955867,0 V 3.6826472 L 13.1591,3.811625 Z m 1.4628772,1.6960543 c 0.095035,0.00208 0.1968604,0.025455 0.3122611,0.070599 0.078069,0.03089 0.1391596,0.064826 0.1900722,0.1042016 0.050909,0.039034 0.095036,0.084854 0.1255833,0.1286377 0.050909,0.069916 0.074667,0.1371223 0.088248,0.212134 0.081461,-0.060075 0.176495,-0.1011453 0.2783193,-0.1303349 0.1154015,-0.02478 0.2443785,-0.011883 0.3767502,0.041743 0.156131,0.061771 0.274926,0.142214 0.349597,0.2413232 0.07467,0.099449 0.118795,0.2026299 0.135766,0.3098853 0.01018,0.058041 0.01018,0.1157399 0.0034,0.1700478 -0.0034,0.057703 -0.02037,0.1120061 -0.04073,0.1595233 -0.01697,0.050909 -0.04073,0.1018248 -0.07807,0.1459496 -0.03395,0.044124 -0.07127,0.088247 -0.118795,0.1221888 -0.08485,0.067882 -0.186678,0.1120061 -0.3088666,0.1323715 -0.1221897,0.020365 -0.2613493,0 -0.4174799,-0.061096 C 9.418752,3.2889263 9.3169277,3.2142547 9.2490451,3.1158249 9.1947346,3.027577 9.1506145,2.9291472 9.1336436,2.8307166 c -0.067882,0.050909 -0.1425541,0.084854 -0.2341957,0.098431 -0.1018248,0.020365 -0.2206195,0 -0.3631737,-0.054302 C 8.4548127,2.8409003 8.3835382,2.803571 8.3258375,2.7628385 8.2647413,2.718715 8.217225,2.6742517 8.1798888,2.6243574 8.1086143,2.5367876 8.0712763,2.4420921 8.0610936,2.3409463 c -0.00675,-0.098431 0.00675,-0.1917695 0.037338,-0.2766229 0.016973,-0.043786 0.044123,-0.087229 0.071275,-0.1330501 0.033928,-0.037338 0.067882,-0.075014 0.1052175,-0.1106498 0.081462,-0.060075 0.1764959,-0.1008056 0.2885029,-0.119813 0.030544,-0.00407 0.061096,-0.0058 0.095036,-0.00476 z M 5.2948659,1.8756046 C 5.4577846,1.8773356 5.6648278,1.9967755 5.6003388,2.2163763 5.4645727,2.4505729 5.2507423,2.6294438 4.989393,2.7187096 4.7382263,2.8035639 4.4802715,2.8680519 4.2426812,2.7831985 4.1408569,2.7051298 3.8014423,2.4641493 3.7335589,2.6677979 3.6928281,3.187102 3.7675041,3.1090368 3.3602034,3.2719555 V 2.4437839 C 3.699618,2.3114124 4.0729735,2.2910479 4.4123881,2.4879075 4.6839201,2.6304616 5.0572756,2.5388166 5.2269833,2.291047 5.2609112,2.0704276 4.9554513,2.1383093 4.8196852,2.1790401 4.717861,1.8973262 5.0844291,1.8929138 5.2609241,1.8769608 c 0.010181,-0.00104 0.020365,-0.00138 0.033945,-0.00138 z M 8.705982,2.0269835 c -0.030544,3.392e-4 -0.061096,0.00476 -0.095036,0.012221 -0.081462,0.020703 -0.1425542,0.073655 -0.1731014,0.1585064 -0.033945,0.082137 -0.027151,0.1608821 0.020365,0.2335181 0.047516,0.075351 0.112007,0.1266011 0.2036486,0.1622401 0.098431,0.039034 0.1832841,0.047854 0.2715321,0.02478 0.084854,-0.019015 0.1459484,-0.071958 0.1764956,-0.154094 C 9.1438315,2.3793002 9.1370373,2.3005564 9.0861282,2.2262249 9.0386119,2.1535916 8.967333,2.0982658 8.8689033,2.0592331 8.8146014,2.0368338 8.7602908,2.0266468 8.7059846,2.0269843 Z M 9.6868895,2.371489 C 9.6495515,2.373219 9.6122135,2.380649 9.5782771,2.393551 9.4866351,2.43326 9.4255402,2.4940179 9.394993,2.5764957 c -0.033945,0.084854 -0.030544,0.1727622 0.01358,0.2576156 0.040731,0.088248 0.1221897,0.1561305 0.2443785,0.2070422 0.098432,0.037338 0.1968612,0.044124 0.2918965,0.020365 0.095036,-0.02716 0.159526,-0.091642 0.19686,-0.1900722 0.03734,-0.09843 0.03734,-0.1876973 -0.01697,-0.2718722 C 10.073827,2.5157413 9.9991523,2.4512506 9.9007225,2.4125573 9.8226538,2.3820135 9.7513802,2.3687713 9.6868913,2.371489 Z M 6.4488749,4.2291049 0.10182429,4.3682645 2.5456082,10.91557 Z m 0.9503612,0 3.9168429,6.6864651 2.416632,-6.5473055 z M 6.9240555,4.4836652 2.9529062,11.278744 H 10.8986 Z m 3.9575725,0.5566395 0.651676,1.4425119 0.244379,-0.1120069 0.139159,0.3122619 -0.240984,0.1086124 0.213831,0.4751798 -0.35299,0.159525 -0.213831,-0.4751797 -1.025033,0.4616034 -0.132371,-0.2952911 c 0.04752,-0.312261 0.149342,-0.9435722 0.302079,-1.8905381 l 0.0611,-0.027151 0.02715,-0.01018 0.10522,-0.050909 z M 3.2142547,5.4509964 h 0.044124 c 0.09843,0 0.1866777,0.016973 0.2647421,0.054302 C 3.757317,5.6139116 3.886294,5.7904075 3.9202357,6.0246024 3.9507795,6.2588 3.8862906,6.5439066 3.7267698,6.8765339 3.5672457,7.2057659 3.3873552,7.4365681 3.1904957,7.565545 2.9868454,7.6945229 2.7730158,7.7047056 2.5422128,7.5994902 2.3419588,7.5044541 2.2231636,7.3720835 2.1824346,7.1955867 2.1417038,7.015698 2.1518908,6.8663556 2.2129783,6.7373787 l 0.3258374,0.1493415 c -0.030544,0.057703 -0.037338,0.1289778 -0.027151,0.2138321 0.01018,0.088247 0.064489,0.1527351 0.1697068,0.2036486 0.1052186,0.047516 0.2070431,0.044124 0.3122619,-0.00675 C 3.098851,7.2499336 3.2074631,7.1209532 3.3228654,6.9139101 3.339838,6.8799735 3.3602034,6.8426356 3.3805688,6.8019048 3.3194727,6.8426356 3.25838,6.8697865 3.1938911,6.8901508 3.0852786,6.9206945 2.969878,6.9071234 2.8442946,6.8494201 2.6983459,6.7815383 2.5897335,6.6627423 2.52185,6.4896409 2.4505755,6.3199341 2.4709409,6.1264673 2.5761606,5.905847 l 0.00338,-0.00338 C 2.616874,5.8244028 2.6609976,5.75313 2.715303,5.6988229 2.7628193,5.6411196 2.8205205,5.5936043 2.8782216,5.5562687 2.9834392,5.4917798 3.0954474,5.454444 3.2142409,5.4510502 Z M 0,5.6240979 v 5.8786591 l 2.1043702,-0.193466 z m 13.848111,0 -2.100976,5.6851931 2.100976,0.193466 z m -3.11922,0.020365 c -0.05431,0.3292319 -0.122188,0.7636835 -0.210436,1.2965631 l 0.665252,-0.2986843 -0.27832,-0.6075521 z m -7.4569355,0.13916 c -0.050909,0.00338 -0.09843,0.01358 -0.1459479,0.037338 -0.1018247,0.047516 -0.1731014,0.1187951 -0.2206194,0.2206194 -0.054302,0.1154007 -0.071274,0.2206195 -0.040731,0.3258383 0.030544,0.1018247 0.091642,0.1731014 0.1832841,0.2172249 0.095037,0.044124 0.1934668,0.044124 0.288502,0 C 3.4314805,6.54052 3.5095449,6.4624547 3.5672457,6.3470532 3.614762,6.2486234 3.624949,6.1467991 3.6011822,6.0415803 3.5740312,5.9363624 3.512936,5.8616908 3.4178998,5.8175672 3.3703835,5.7938091 3.3194692,5.7836221 3.2719503,5.7836221 Z M 6.7747132,7.4026298 H 7.3042 V 10.2605 H 6.7747132 V 7.8778104 C 6.4760285,8.0746708 6.255409,8.2036487 6.1162494,8.257954 L 5.9024181,8.352991 V 7.8778104 L 6.1162494,7.7827743 C 6.255409,7.7216782 6.4760285,7.5994902 6.7747132,7.4026298 Z m 6.8459898,0.2104368 h 0.01697 c 0.122189,0.010191 0.193466,0.2375911 0.159525,0.3767517 -0.0034,0.6313094 0.03734,1.3305031 -0.329233,1.8769608 -0.03054,0.040731 -0.07467,0.064489 -0.125582,0.084854 -0.196861,-0.1391597 -0.101827,-0.383539 0.04073,-0.5260923 0.03395,0.2477729 0.186678,-0.09843 0.224015,-0.1900723 0.04412,-0.1086133 0.122188,-0.6007631 -0.03395,-0.3462028 0.02376,0.1357652 -0.230803,0.4446334 -0.315655,0.2749249 -0.169708,-0.4887561 0,-1.0352138 0.23759,-1.4764527 0.04412,-0.047516 0.08485,-0.071275 0.125582,-0.074676 z M 0.27153116,7.6436189 c 0.0339452,0.00338 0.0339452,0.033937 0.0678817,0.122188 v 2.073823 C 0.10182083,9.6020413 0.23758684,9.2490503 0.20364512,8.9435766 0.16969735,8.6856218 0.27152597,8.3903316 0.16969735,8.1561349 0,8.0984299 -0.03394172,7.5791257 0.06788257,7.7250735 0.20364859,7.8879922 0.20364859,7.6334319 0.27153116,7.643612 Z M 13.539244,8.0033981 c -0.03394,0 -0.06788,0.033945 -0.09503,0.1255833 -0.0543,0.2002541 -0.112006,0.4548152 -0.02376,0.6550702 0.173101,-0.067882 0.183284,-0.3258392 0.224014,-0.4921515 0.04073,-0.112007 -0.03054,-0.2851084 -0.105213,-0.288502 z M 0.7806535,8.4140898 C 0.91641952,8.3971172 1.0182438,8.6584682 1.0861264,8.780657 1.1974539,9.2117132 1.2290198,9.2524431 1.1879507,9.3508738 1.0182438,9.2252896 1.0226562,9.0997063 1.0060246,9.0487945 0.9720794,8.9469698 0.95036383,8.868905 0.8824778,8.7636862 0.76911284,8.8587221 0.7806535,9.0725536 0.7806535,9.2185014 c 0,-0.054302 0.0339365,-0.078069 0.13576602,-0.023758 C 1.1540089,9.6224058 1.3237167,10.18244 1.1540089,10.671197 l -0.067882,0.03734 C 0.7127718,10.511674 0.67883094,10.050071 0.6109475,9.690291 0.57700232,9.2728111 0.57700232,8.8519376 0.67882921,8.4446404 0.71276574,8.424275 0.74671092,8.4141053 0.7806535,8.4141053 Z M 12.93848,8.5770093 c 0.152736,0.010191 0.02716,1.1947389 0.02716,1.8667797 l -0.149342,0.227408 V 9.2354731 C 12.660158,9.4900343 12.507421,9.5443405 12.609246,9.2049294 12.77556,8.750115 12.877383,8.5736183 12.938478,8.5770136 Z M 0.84853608,9.4662753 c -0.13576601,0.159525 -0.0678817,0.4344507 -0.0339452,0.6245217 0.0678817,0.186679 0.23759032,0.346203 0.20364862,0.0543 0,-0.1934665 0.033937,-0.4005087 -0.10182433,-0.5566401 0,-0.020365 -0.0339452,-0.064489 -0.0678817,-0.1221888 z M 3.0886714,11.821808 6.9240555,16 10.752651,11.821808 Z m -0.7127701,0.01017 -1.83283811,0.166314 2.17225271,1.394994 C 2.6474342,13.30165 2.5456082,13.199827 2.4777256,13.094608 2.3080188,12.860413 2.138311,12.633004 1.8328381,12.53118 1.5273653,12.310561 1.6970721,12.35129 1.9346629,12.44293 c -0.033945,-0.06109 -0.033945,-0.08825 0,-0.08825 0.067882,-0.0067 0.3054729,0.142554 0.3394146,0.213831 l 0.848536,1.072549 2.2061945,1.415358 z m 9.1030967,0 -1.439118,1.571493 c 0.217225,-0.10521 0.383539,-0.288494 0.577005,-0.420866 0.08146,-0.04752 0.125584,-0.06449 0.145948,-0.06449 0.07127,0 -0.183284,0.240985 -0.261349,0.349596 -0.319049,0.332627 -0.5430633,0.780655 -0.970725,0.987697 l 0.641493,-0.831566 c -0.07807,0.04412 -0.2036486,0.108613 -0.2783194,0.139161 l -1.3678411,1.493426 2.5286375,-1.615613 c 0.183284,-0.227408 0.06449,-0.190073 -0.193465,-0.03054 l -0.386933,0.203648 c 0.386933,-0.464999 0.909631,-0.801019 1.357658,-1.208317 0.108613,-0.05091 0.322444,-0.190072 0.373356,-0.193466 0.02716,-0.0034 0.0067,0.03395 -0.09503,0.142555 l -0.427663,0.543063 c 0.339415,-0.257956 0.03054,0.132372 -0.152736,0.186677 -0.02376,0.03395 -0.04752,0.06788 -0.07467,0.09843 l 1.849809,-1.184557 z M 6.1060667,12.39881 c 0.047516,0 0.091642,0.0034 0.1391596,0.0067 v 1.47306 H 5.8039874 V 12.86036 C 5.6342806,12.81284 5.4306319,12.91807 5.2609241,12.85019 5.125159,12.75176 5.2948691,12.619389 5.4306319,12.649936 c 0.1018247,-0.0034 0.2375904,0.0067 0.305473,-0.108613 0.1154006,-0.105224 0.2375903,-0.142554 0.3699618,-0.142554 z m 1.1234617,0.02376 c 0,0 0.033945,0.0034 0.033945,0.0067 0.1357669,0.02715 0.2375912,0.01017 0.3394146,0.01358 h 0.8689014 c 0.050909,0.101827 0.027151,0.264742 -0.1120069,0.268137 -0.1323724,0.01698 -0.2647439,-0.01358 -0.3971154,0.0067 -0.1595242,0.0067 -0.3258374,-0.06109 -0.4955443,0.01358 -0.1018247,0.05771 -0.135766,0.288501 0.033945,0.207043 0.1357652,-0.03734 0.2477722,-0.06109 0.3665673,-0.03055 0.2375903,0.03733 0.5091215,0.09843 0.648282,0.312263 0.071274,0.105213 0.091642,0.247771 0.023758,0.363172 -0.1221897,0.22062 -0.3937209,0.285108 -0.6211293,0.329233 -0.081462,0.01358 -0.1595242,0.04752 -0.247773,0.04073 -0.2375895,-0.02036 -0.5091206,-0.03734 -0.6788284,-0.240985 -0.1018247,-0.08485 -0.1018247,-0.240984 0.067882,-0.227409 0.1018248,-0.0034 0.2715312,-0.01358 0.3394146,0.118796 0.1018248,0.125583 0.3054729,0.101827 0.4412381,0.06788 0.1221896,-0.01698 0.2545611,-0.08825 0.2579556,-0.227408 0.020365,-0.142554 -0.1052185,-0.244378 -0.2341957,-0.264743 -0.1934668,-0.07807 -0.3971154,0.04752 -0.6007648,0.06109 -0.1018237,0.03734 -0.3054721,0.01697 -0.3054721,-0.149342 0.033937,-0.142555 0.1018248,-0.274925 0.1018248,-0.424269 0,-0.101827 0.067882,-0.23759 0.1697068,-0.244378 z m 4.5311836,0.169708 c -0.0067,-0.0067 -0.237591,0.196861 -0.336021,0.274925 l -0.536274,0.444633 c 0.291896,-0.149342 0.560034,-0.325837 0.756894,-0.590582 0.08825,-0.08825 0.118795,-0.125583 0.115401,-0.128976 z m -8.4005086,0.481968 c 0.1018247,0 0.2715312,0.156131 0.3394146,0.23759 l 0.8824778,1.055582 C 4.3105638,14.296141 4.1408569,14.126431 3.9711492,13.902417 3.7675006,13.654645 3.5977937,13.338989 3.2583791,13.237166 2.9529062,13.067457 3.0886714,13.01994 3.3262608,13.16249 c 0,-0.06449 0,-0.08825 0.033945,-0.08825 z"
     id="path2"
     style="stroke-width:0.0339415" />
</svg>
